<svg width="256" height="256" viewBox="0 0 256 256" fill="none" xmlns="http://www.w3.org/2000/svg">
<rect width="256" height="256" rx="64" fill="white"/>
<path d="M101.074 175.642C105.44 181.053 111.313 185.048 117.949 187.122C124.586 189.195 131.688 189.254 138.358 187.291C145.028 185.328 150.966 181.432 155.421 176.094C159.877 170.756 162.649 164.217 163.388 157.304C164.127 150.39 162.8 143.413 159.573 137.254C156.347 131.095 151.367 126.031 145.262 122.703C139.158 119.375 132.204 117.931 125.279 118.555C118.354 119.179 111.77 121.842 106.359 126.208" stroke="black" stroke-width="19"/>
<path d="M149.71 74.276C144.175 70.068 137.517 67.5957 130.577 67.1718C123.637 66.748 116.727 68.3915 110.721 71.8946C104.716 75.3978 99.8834 80.6032 96.836 86.8526C93.7886 93.102 92.6628 100.115 93.601 107.004C94.5392 113.893 97.4992 120.349 102.107 125.556C106.714 130.763 112.762 134.487 119.486 136.257C126.21 138.026 133.308 137.763 139.881 135.498C146.455 133.234 152.21 129.071 156.418 123.537" stroke="#D7FF30" stroke-width="19"/>
<path d="M163.587 102.261C163.587 95.3087 161.526 88.512 157.663 82.7309C153.8 76.9499 148.31 72.4441 141.886 69.7834C135.463 67.1227 128.394 66.4265 121.575 67.7829C114.756 69.1393 108.492 72.4874 103.576 77.4038C98.6593 82.3202 95.3112 88.5841 93.9548 95.4033C92.5984 102.222 93.2945 109.291 95.9553 115.714C98.616 122.138 103.122 127.628 108.903 131.491C114.684 135.354 121.481 137.416 128.433 137.416" stroke="#D7FF30" stroke-width="19"/>
<path d="M93.2793 153.567C93.2793 160.519 95.341 167.316 99.2038 173.097C103.067 178.878 108.557 183.384 114.98 186.045C121.404 188.705 128.472 189.402 135.292 188.045C142.111 186.689 148.375 183.341 153.291 178.424C158.207 173.508 161.556 167.244 162.912 160.425C164.268 153.606 163.572 146.537 160.911 140.114C158.251 133.69 153.745 128.2 147.964 124.337C142.183 120.474 135.386 118.413 128.433 118.413" stroke="black" stroke-width="19"/>
</svg>
