<svg width="99" height="150" viewBox="0 0 99 150" fill="none" xmlns="http://www.w3.org/2000/svg">
<path d="M22.0745 122.642C26.4404 128.053 32.3129 132.048 38.9493 134.122C45.5857 136.195 52.688 136.254 59.358 134.291C66.028 132.328 71.9661 128.432 76.4215 123.094C80.8768 117.756 83.6493 111.217 84.3884 104.304C85.1274 97.3904 83.7998 90.4131 80.5733 84.2542C77.3469 78.0953 72.3666 73.0315 66.2623 69.703C60.1579 66.3746 53.2037 64.9311 46.2789 65.555C39.3541 66.1789 32.7699 68.8423 27.3588 73.2082" stroke="black" stroke-width="19"/>
<path d="M70.7098 21.276C65.1749 17.068 58.5166 14.5957 51.5767 14.1718C44.6368 13.748 37.7271 15.3915 31.7213 18.8946C25.7155 22.3978 20.8834 27.6032 17.836 33.8526C14.7886 40.102 13.6628 47.1147 14.601 54.0039C15.5392 60.8932 18.4992 67.3495 23.1067 72.5565C27.7142 77.7634 33.7622 81.4872 40.4861 83.2568C47.2099 85.0265 54.3075 84.7625 60.8813 82.4983C67.4552 80.2342 73.21 76.0715 77.418 70.5367" stroke="#D7FF30" stroke-width="19"/>
<path d="M84.5874 49.2615C84.5874 42.3087 82.5257 35.512 78.6629 29.7309C74.8001 23.9499 69.3098 19.4441 62.8862 16.7834C56.4627 14.1227 49.3944 13.4265 42.5751 14.7829C35.7559 16.1393 29.4921 19.4874 24.5757 24.4038C19.6593 29.3202 16.3112 35.5841 14.9548 42.4033C13.5984 49.2225 14.2945 56.2908 16.9553 62.7144C19.616 69.1379 24.1218 74.6282 29.9028 78.491C35.6839 82.3538 42.4805 84.4155 49.4334 84.4155" stroke="#D7FF30" stroke-width="19"/>
<path d="M14.2793 100.567C14.2793 107.519 16.341 114.316 20.2038 120.097C24.0666 125.878 29.5569 130.384 35.9805 133.045C42.404 135.705 49.4723 136.402 56.2916 135.045C63.1108 133.689 69.3746 130.341 74.291 125.424C79.2074 120.508 82.5555 114.244 83.9119 107.425C85.2684 100.606 84.5722 93.5373 81.9115 87.1138C79.2507 80.6902 74.7449 75.1999 68.9639 71.3371C63.1828 67.4743 56.3862 65.4126 49.4333 65.4126" stroke="black" stroke-width="19"/>
</svg>
