<svg width="220" height="334" viewBox="0 0 220 334" fill="none" xmlns="http://www.w3.org/2000/svg">
<path d="M49.1206 272.907C58.8358 284.948 71.9033 293.837 86.6706 298.451C101.438 303.065 117.242 303.197 132.084 298.829C146.926 294.461 160.14 285.79 170.054 273.913C179.968 262.035 186.137 247.485 187.782 232.101C189.426 216.717 186.472 201.191 179.293 187.486C172.113 173.782 161.031 162.514 147.448 155.107C133.864 147.701 118.389 144.489 102.98 145.877C87.5714 147.265 72.9201 153.192 60.8794 162.907" stroke="white" stroke-width="42.2788"/>
<path d="M157.345 47.3446C145.029 37.9809 130.212 32.4796 114.77 31.5364C99.3271 30.5932 83.9516 34.2504 70.5875 42.0456C57.2234 49.8408 46.4709 61.4239 39.6898 75.3301C32.9088 89.2362 30.4037 104.841 32.4913 120.171C34.5789 135.501 41.1655 149.867 51.4181 161.454C61.6707 173.041 75.1289 181.327 90.0908 185.264C105.053 189.202 120.846 188.615 135.474 183.577C150.103 178.538 162.908 169.276 172.272 156.96" stroke="#D7FF30" stroke-width="42.2788"/>
<path d="M188.224 109.621C188.224 94.15 183.636 79.026 175.041 66.162C166.445 53.298 154.228 43.2717 139.935 37.351C125.641 31.4304 109.913 29.8813 94.7384 32.8996C79.5643 35.9179 65.6259 43.3681 54.686 54.3081C43.746 65.248 36.2958 79.1863 33.2775 94.3605C30.2592 109.535 31.8083 125.263 37.729 139.557C43.6496 153.85 53.6759 166.068 66.5399 174.663C79.4039 183.258 94.5279 187.846 109.999 187.846" stroke="#D7FF30" stroke-width="42.2788"/>
<path d="M31.7758 223.783C31.7758 239.254 36.3636 254.378 44.9591 267.242C53.5545 280.106 65.7716 290.133 80.0653 296.053C94.359 301.974 110.087 303.523 125.262 300.505C140.436 297.486 154.374 290.036 165.314 279.096C176.254 268.156 183.704 254.218 186.723 239.044C189.741 223.87 188.192 208.141 182.271 193.848C176.35 179.554 166.324 167.337 153.46 158.741C140.596 150.146 125.472 145.558 110.001 145.558" stroke="white" stroke-width="42.2788"/>
</svg>
